<svg xmlns="http://www.w3.org/2000/svg" xmlns:xlink="http://www.w3.org/1999/xlink" width="472" height="228"><defs><path id="a" d="M373 267.94s-35.49 34.76-56.78 90.36c-10.65 3.48-10.65-10.42-10.65-10.42l14.2-34.76-3.55-10.42s-31.95 3.47-67.44-27.8c-35.48-31.29-56.78-45.2-56.78-73 0-24.33 39.04-48.66 74.53-41.7 35.49 6.95 60.33 27.8 70.98 52.13 10.65 24.32 7.1 55.6 0 62.55 0 0-24.84-59.08-85.18-69.5 0 0 60.34 38.23 78.08 97.3l35.5-48.65z"/><path id="b" d="M351 217.5c0-47.77 37.38-86.5 83.5-86.5s83.5 38.73 83.5 86.5-37.38 86.5-83.5 86.5-83.5-38.73-83.5-86.5z"/><path id="c" d="M428 204c0-24.85 17.01-45 38-45s38 20.15 38 45-17.01 45-38 45-38-20.15-38-45z"/><path id="d" d="M428 209.5c0-20.71 15.45-37.5 34.5-37.5s34.5 16.79 34.5 37.5-15.45 37.5-34.5 37.5-34.5-16.79-34.5-37.5z"/><path id="e" d="M428 217.5c0-17.4 12.31-31.5 27.5-31.5s27.5 14.1 27.5 31.5-12.31 31.5-27.5 31.5-27.5-14.1-27.5-31.5z"/></defs><text dominant-baseline="text-before-edge" font-family="Helvetica, Arial, sans-serif" transform="translate(-4 -62)" fill="#202020" font-size="260"><tspan>4</tspan></text><use fill="#66c900" xlink:href="#a" transform="translate(-123 -131)"/><use fill="#5b4285" xlink:href="#b" transform="translate(-123 -131)"/><use fill="#fff" xlink:href="#c" transform="translate(-123 -131)"/><use fill="#3a2855" xlink:href="#d" transform="translate(-123 -131)"/><use fill="#5b4285" xlink:href="#e" transform="translate(-123 -131)"/><text dominant-baseline="text-before-edge" font-family="Helvetica, Arial, sans-serif" transform="translate(338 -62)" fill="#202020" font-size="260"><tspan>4</tspan></text></svg>