<svg xmlns="http://www.w3.org/2000/svg" xmlns:xlink="http://www.w3.org/1999/xlink" width="66" height="23"><defs><path id="a" d="M234 272.5c.5-2 .5-7.5 7-6s17 2.5 17 2.5 4 .5 3.5 4.5-3.5 13-12 13.5-16.5-4.5-15.5-14.5z"/><path id="b" d="M297.54 272.26c-.5-2-.5-7.5-7-6s-17 2.5-17 2.5-4 .5-3.5 4.5 3.5 13 12 13.5 16.5-4.5 15.5-14.5z"/><path id="c" d="M259.5 269.5s3.35 1 6 1 6-1 6-1"/></defs><use fill="#fff" fill-opacity="0" stroke="#6f6f6f" stroke-miterlimit="50" stroke-width="2" xlink:href="#a" transform="translate(-233 -265)"/><use fill="#fff" fill-opacity="0" stroke="#6f6f6f" stroke-miterlimit="50" stroke-width="2" xlink:href="#b" transform="translate(-233 -265)"/><use fill="#fff" fill-opacity="0" stroke="#6f6f6f" stroke-miterlimit="50" stroke-width="2" xlink:href="#c" transform="translate(-233 -265)"/></svg>