<svg xmlns="http://www.w3.org/2000/svg" xmlns:xlink="http://www.w3.org/1999/xlink" width="68" height="24"><defs><path id="a" d="M234 362s-1-5.5 4.5-4.5 20 6.5 21.5 7.5 7 7-1.5 12.5c-11.5 2.5-17.5-2.5-20-5S234 362 234 362z"/><path id="b" d="M299.22 361.65s1-5.5-4.5-4.5-20 6.5-21.5 7.5-7 7 1.5 12.5c11.5 2.5 17.5-2.5 20-5s4.5-10.5 4.5-10.5z"/><path id="c" d="M262 367.5s2.4 1 4.5 1 4-1 4-1"/></defs><use fill="#fff" fill-opacity="0" stroke="#6f6f6f" stroke-miterlimit="50" stroke-width="2" xlink:href="#a" transform="translate(-233 -356)"/><use fill="#fff" fill-opacity="0" stroke="#6f6f6f" stroke-miterlimit="50" stroke-width="2" xlink:href="#b" transform="translate(-233 -356)"/><use fill="#fff" fill-opacity="0" stroke="#6f6f6f" stroke-miterlimit="50" stroke-width="2" xlink:href="#c" transform="translate(-233 -356)"/></svg>