<svg xmlns="http://www.w3.org/2000/svg" xmlns:xlink="http://www.w3.org/1999/xlink" width="22" height="22"><defs><path id="a" d="M337 74a11 11 0 1 1 22 0 11 11 0 0 1-22 0z"/><path id="b" d="M353.8 70.76l-6.77 7.16a.34.34 0 0 1-.53 0l-.13-.14-.13-.16-.56-.67-2.57-3.14a.53.53 0 0 1 0-.65l.8-.98a.34.34 0 0 1 .54 0l2.31 2.81 5.7-5.86a.34.34 0 0 1 .53 0l.8.98c.16.2.16.46.01.65z"/></defs><use fill="#9971db" xlink:href="#a" transform="translate(-337 -63)"/><use fill="#fff" xlink:href="#b" transform="translate(-337 -63)"/></svg>