<svg xmlns="http://www.w3.org/2000/svg" xmlns:xlink="http://www.w3.org/1999/xlink" width="65" height="19"><defs><path id="a" d="M39.1 276c-.5-2.5 1-6 4-6s20.5 1.5 20.5 1.5 5.5 1 3.5 6-5.5 7.5-8.5 8.5-8 1-11 0-6.5-1.5-8.5-10z"/><path id="b" d="M101.44 276c.5-2.5-1-6-4-6s-20.5 1.5-20.5 1.5-5.5 1-3.5 6 5.5 7.5 8.5 8.5 8 1 11 0 6.5-1.5 8.5-10z"/><path id="c" d="M67 274s1.9 1 3.5 1 3-1 3-1"/></defs><use fill="#fff" fill-opacity="0" stroke="#6f6f6f" stroke-miterlimit="50" stroke-width="2" xlink:href="#a" transform="translate(-38 -269)"/><use fill="#fff" fill-opacity="0" stroke="#6f6f6f" stroke-miterlimit="50" stroke-width="2" xlink:href="#b" transform="translate(-38 -269)"/><use fill="#fff" fill-opacity="0" stroke="#6f6f6f" stroke-miterlimit="50" stroke-width="2" xlink:href="#c" transform="translate(-38 -269)"/></svg>