<svg xmlns="http://www.w3.org/2000/svg" xmlns:xlink="http://www.w3.org/1999/xlink" width="138" height="98"><defs><path id="a" d="M997.65 306.8c-11.08 0-20.11-9-20.11-20.07a20.12 20.12 0 0 1 40.23 0 20.11 20.11 0 0 1-20.12 20.07zm-75.31 0c-11.09 0-20.12-9-20.12-20.07a20.12 20.12 0 0 1 40.23 0 20.11 20.11 0 0 1-20.11 20.07zm101.21-37.64c.1-.88.03-1.8-.32-2.66l-16.84-42.94a5.62 5.62 0 0 0-10.46 4.08l11.54 29.42a31.34 31.34 0 0 0-36 12.53 5.9 5.9 0 0 0-1.18-.13h-20.58c-.4 0-.8.05-1.17.13a31.36 31.36 0 0 0-36.01-12.53l11.54-29.42a5.61 5.61 0 0 0-10.46-4.08l-16.84 42.94a5.5 5.5 0 0 0-.33 2.66 31.05 31.05 0 0 0-5.44 17.57 31.34 31.34 0 1 0 62.09-6.06h13.83a31.34 31.34 0 1 0 62.08 6.07c0-6.52-2.02-12.57-5.45-17.58z"/></defs><use fill="#f44747" xlink:href="#a" transform="translate(-891 -220)"/></svg>