<svg xmlns="http://www.w3.org/2000/svg" xmlns:xlink="http://www.w3.org/1999/xlink" width="21" height="22"><defs><path id="a" d="M254 2948.14h20.89v-21.03H254z"/><path id="c" d="M268.86 2927.11h-8.83a6.05 6.05 0 0 0-6.03 6.07v8.9c0 3.34 2.7 6.06 6.03 6.06h8.83a6.05 6.05 0 0 0 6.03-6.07v-8.89c0-3.35-2.7-6.07-6.03-6.07zm4.1 15.12c0 2.22-1.79 4.03-4 4.03h-9.03c-2.22 0-4-1.8-4-4.03v-9.1c0-2.23 1.78-4.03 4-4.03h9.03c2.21 0 4 1.8 4 4.03z"/><path id="d" d="M264.5 2933.13a4.37 4.37 0 1 0 0 8.75 4.37 4.37 0 0 0 0-8.75m0 7.3a2.92 2.92 0 1 1 0-5.84 2.92 2.92 0 0 1 0 5.83"/><path id="e" d="M269.31 2930.5a1.31 1.31 0 1 0 0 2.63 1.31 1.31 0 0 0 0-2.63"/><clipPath id="b"><use xlink:href="#a"/></clipPath></defs><g clip-path="url(#b)" transform="translate(-254 -2927)"><use fill="#fff" xlink:href="#c"/></g><use fill="#fff" xlink:href="#d" transform="translate(-254 -2927)"/><use fill="#fff" xlink:href="#e" transform="translate(-254 -2927)"/></svg>