<svg xmlns="http://www.w3.org/2000/svg" xmlns:xlink="http://www.w3.org/1999/xlink" width="26" height="12"><defs><path id="a" d="M20 418a1 1 0 0 1 1-1h13a1 1 0 0 1 0 2H21a1 1 0 0 1-1-1z"/><path id="b" d="M35 418a5 5 0 1 1 10 0 5 5 0 0 1-10 0z"/><path id="c" d="M23 418a1 1 0 0 1 2 0v2a1 1 0 0 1-2 0z"/><path id="d" d="M27 418a1 1 0 0 1 2 0v4a1 1 0 0 1-2 0z"/></defs><use fill="#7b7b7b" xlink:href="#a" transform="translate(-20 -412)"/><use fill="#fff" fill-opacity="0" stroke="#7b7b7b" stroke-miterlimit="50" stroke-width="2" xlink:href="#b" transform="translate(-20 -412)"/><use fill="#7b7b7b" xlink:href="#c" transform="translate(-20 -412)"/><use fill="#7b7b7b" xlink:href="#d" transform="translate(-20 -412)"/></svg>