<svg xmlns="http://www.w3.org/2000/svg" xmlns:xlink="http://www.w3.org/1999/xlink" width="21" height="19"><defs><path id="a" d="M519.82 23c-1.67 0-3.25.45-4.32 1.73-1.07-1.28-2.65-1.72-4.32-1.73a5.05 5.05 0 0 0-5.18 5.18 7.88 7.88 0 0 0 1.73 4.32c2 2.92 6.87 6.53 7.08 6.68.4.3.96.3 1.37 0 .22-.15 5.09-3.76 7.1-6.68a7.936 7.936 0 0 0 1.72-4.32 5.05 5.05 0 0 0-5.18-5.18z"/></defs><use fill="#fff" fill-opacity="0" stroke="#202020" stroke-miterlimit="50" stroke-width="2" xlink:href="#a" transform="translate(-505 -22)"/></svg>