<svg xmlns="http://www.w3.org/2000/svg" xmlns:xlink="http://www.w3.org/1999/xlink" width="18" height="16"><defs><path id="a" d="M320.64 628c-1.4 0-2.74.38-3.64 1.46-.9-1.08-2.23-1.46-3.64-1.46a4.25 4.25 0 0 0-4.36 4.36c.11 1.33.62 2.6 1.46 3.64 1.68 2.46 5.78 5.5 5.96 5.63.34.25.8.25 1.15 0 .19-.13 4.29-3.17 5.97-5.63a6.64 6.64 0 0 0 1.46-3.64 4.25 4.25 0 0 0-4.36-4.36z"/></defs><use fill="#fff" fill-opacity="0" stroke="#fff" stroke-miterlimit="50" stroke-width="2" xlink:href="#a" transform="translate(-308 -627)"/></svg>