<svg xmlns="http://www.w3.org/2000/svg" xmlns:xlink="http://www.w3.org/1999/xlink" width="19" height="21"><defs><path id="a" d="M209 196c0-1.1.9-2 2-2h4a2 2 0 0 1 2 2v17a4 4 0 0 1-4 4h-4z"/><path id="b" d="M210 200v-2h6v2z"/><path id="e" d="M216 212.5a1.5 1.5 0 1 1 3 0 1.5 1.5 0 1 1-3 0z"/><path id="f" d="M221 212.5a1.5 1.5 0 1 1 3 0 1.5 1.5 0 1 1-3 0z"/><clipPath id="c"><use fill="#fff" xlink:href="#a"/></clipPath><clipPath id="d"><use fill="#fff" xlink:href="#b"/></clipPath></defs><use fill="#fff" fill-opacity="0" stroke="#979797" stroke-linejoin="round" stroke-miterlimit="50" stroke-width="4" clip-path="url(&quot;#c&quot;)" xlink:href="#a" transform="rotate(39 385.92 -181.95)"/><use fill="#fff" fill-opacity="0" stroke="#979797" stroke-miterlimit="50" stroke-width="2" clip-path="url(&quot;#d&quot;)" xlink:href="#b" transform="rotate(39 385.92 -181.95)"/><use fill="#979797" xlink:href="#e" transform="translate(-205 -194)"/><use fill="#979797" xlink:href="#f" transform="translate(-205 -194)"/></svg>