<svg xmlns="http://www.w3.org/2000/svg" xmlns:xlink="http://www.w3.org/1999/xlink" width="11" height="11"><defs><path id="a" d="M824.08 27c-.28 0-.57-.05-.84-.14-3.37-1.2-6-3.9-7.12-7.31a2.53 2.53 0 0 1 .87-2.79l.55-.41a1.72 1.72 0 0 1 2.56.58l.92 1.78c.23.45.16 1-.18 1.36l-.2.21a.67.67 0 0 0-.1.76c.32.6.8 1.1 1.41 1.4.25.13.55.1.76-.1l.21-.19c.37-.33.91-.4 1.36-.18l1.79.92a1.72 1.72 0 0 1 .43 2.73l-.62.63c-.47.48-1.12.75-1.8.75z"/></defs><use fill="#fff" xlink:href="#a" transform="translate(-816 -16)"/></svg>