<svg xmlns="http://www.w3.org/2000/svg" xmlns:xlink="http://www.w3.org/1999/xlink" width="15" height="15"><defs><path id="a" d="M1343.02 891c-.39 0-.78-.06-1.15-.2a15.8 15.8 0 0 1-9.7-9.96 3.45 3.45 0 0 1 1.18-3.8l.74-.57a2.35 2.35 0 0 1 3.5.8l1.25 2.43c.32.6.22 1.35-.25 1.86l-.25.28a.91.91 0 0 0-.14 1.03c.42.83 1.1 1.5 1.92 1.92.34.17.75.12 1.03-.14l.29-.26a1.67 1.67 0 0 1 1.85-.25l2.44 1.25a2.34 2.34 0 0 1 .6 3.73l-.85.86a3.47 3.47 0 0 1-2.46 1.02z"/></defs><use fill="#f44747" xlink:href="#a" transform="translate(-1332 -876)"/></svg>