<svg xmlns="http://www.w3.org/2000/svg" xmlns:xlink="http://www.w3.org/1999/xlink" height="42" width="42"><defs><path d="M46.78 674.33v-15.11h20.44v15.11z" id="a"/><path d="M61 669.89v-6.22h8v6.22z" id="b"/><path d="M37 665a20 20 0 1 1 40 0 20 20 0 0 1-40 0z" id="c"/><path d="M47 657.78V656h17.78v1.78z" id="e"/><path d="M46.78 661v-4.44h1.78V661z" id="f"/><path d="M62.78 661v-4.44h1.78V661z" id="g"/><path d="M50.33 670.78V669h8v1.78z" id="i"/><clipPath id="d"><use xlink:href="#a" fill="#fff"/></clipPath><clipPath id="h"><use xlink:href="#b" fill="#fff"/></clipPath></defs><use fill="#fff" fill-opacity="0" stroke="#202020" stroke-width="2" xlink:href="#c" stroke-miterlimit="50" transform="translate(-36 -644)"/><use fill="#fff" fill-opacity="0" stroke="#202020" stroke-width="4" xlink:href="#a" clip-path="url(&quot;#d&quot;)" stroke-miterlimit="50" transform="translate(-36 -644)"/><use fill="#202020" xlink:href="#e" transform="translate(-36 -644)"/><use fill="#202020" xlink:href="#f" transform="translate(-36 -644)"/><use fill="#202020" xlink:href="#g" transform="translate(-36 -644)"/><g fill="#fff" transform="translate(-36 -644)"><use xlink:href="#b"/><use fill-opacity="0" stroke="#202020" stroke-width="4" xlink:href="#b" clip-path="url(&quot;#h&quot;)" stroke-miterlimit="50"/></g><use fill="#202020" xlink:href="#i" transform="translate(-36 -644)"/></svg>