<svg xmlns="http://www.w3.org/2000/svg" xmlns:xlink="http://www.w3.org/1999/xlink" width="19" height="18"><defs><path id="a" d="M492 522c0-1.1.9-2 2-2h15a2 2 0 0 1 2 2v9a2 2 0 0 1-2 2h-15a2 2 0 0 1-2-2z"/><path id="b" d="M496 530c0-1.1.9-2 2-2h7a2 2 0 0 1 2 2v3a2 2 0 0 1-2 2h-7a2 2 0 0 1-2-2z"/><path id="c" d="M497 519c0-1.1.9-2 2-2h5a2 2 0 0 1 2 2v1a2 2 0 0 1-2 2h-5a2 2 0 0 1-2-2z"/><path id="e" d="M505 524a1 1 0 1 1 2 0 1 1 0 0 1-2 0z"/><clipPath id="d"><use fill="#fff" xlink:href="#a"/></clipPath><clipPath id="f"><use fill="#fff" xlink:href="#b"/></clipPath><clipPath id="g"><use fill="#fff" xlink:href="#c"/></clipPath></defs><use fill="#fff" fill-opacity="0" stroke="#979797" stroke-miterlimit="50" stroke-width="4" clip-path="url(&quot;#d&quot;)" xlink:href="#a" transform="translate(-492 -517)"/><use fill="#979797" xlink:href="#e" transform="translate(-492 -517)"/><g fill="#fff" transform="translate(-492 -517)"><use xlink:href="#b"/><use fill-opacity="0" stroke="#979797" stroke-miterlimit="50" stroke-width="4" clip-path="url(&quot;#f&quot;)" xlink:href="#b"/></g><g fill="#fff" transform="translate(-492 -517)"><use xlink:href="#c"/><use fill-opacity="0" stroke="#979797" stroke-miterlimit="50" stroke-width="4" clip-path="url(&quot;#g&quot;)" xlink:href="#c"/></g></svg>