<svg xmlns="http://www.w3.org/2000/svg" xmlns:xlink="http://www.w3.org/1999/xlink" width="64" height="22"><defs><path id="a" d="M40.5 361.5c1.43-1.65 5.5-2 5.5-2h13s5 1 6.5 4.5 1.5 7 1.5 8-1 2.5-2.5 4-3.5 2.5-7 2.5c-6.03 0-6 0-12-.5-2-.5-3.3-.87-5-4-1.71-3.13-1.43-10.85 0-12.5z"/><path id="b" d="M99.5 362c-1.43-1.65-5.5-2-5.5-2H81s-5 1-6.5 4.5-1.5 7-1.5 8 1 2.5 2.5 4 3.5 2.5 7 2.5c6.03 0 6 0 12-.5 2-.5 3.29-.87 5-4s1.43-10.85 0-12.5z"/><path id="c" d="M67 370.5h6"/></defs><use fill="#fff" fill-opacity="0" stroke="#6f6f6f" stroke-miterlimit="50" stroke-width="2" xlink:href="#a" transform="translate(-38 -358)"/><use fill="#fff" fill-opacity="0" stroke="#6f6f6f" stroke-miterlimit="50" stroke-width="2" xlink:href="#b" transform="translate(-38 -358)"/><use fill="#fff" fill-opacity="0" stroke="#6f6f6f" stroke-miterlimit="50" stroke-width="2" xlink:href="#c" transform="translate(-38 -358)"/></svg>