<svg xmlns="http://www.w3.org/2000/svg" xmlns:xlink="http://www.w3.org/1999/xlink" width="22" height="18"><defs><path id="a" d="M89.42 57.23A10.79 10.79 0 0 0 85.7 55L82 67.31h-.03L78.28 55s-1.83.51-3.74 2.23c-2.05 1.82-3.8 4.61-3.5 9.05.23 3.5 2.87 6.49 2.87 6.49l5.1-.02s-4.38-2.28-5.43-5.88a8.21 8.21 0 0 1 2.21-8.61c.61-.53 1.51-.65 1.84.48L82 72.64s3.22-10.3 4.37-13.9c.34-1.13 1.24-1 1.83-.48a8.21 8.21 0 0 1 2.22 8.6c-1.05 3.6-5.44 5.9-5.44 5.9h5.1s2.66-2.99 2.88-6.48c.27-4.44-1.49-7.23-3.55-9.05"/></defs><use fill="#3b98ff" xlink:href="#a" transform="translate(-71 -55)"/></svg>