<svg xmlns="http://www.w3.org/2000/svg" xmlns:xlink="http://www.w3.org/1999/xlink" width="61" height="40"><defs><path id="a" d="M158 2188a6 6 0 0 1 6-6h41.48a6 6 0 0 1 6 6v33.5H164a6 6 0 0 1-6-6z"/><path id="b" d="M163.87 2192.17a3 3 0 0 1 3-3h14.22a3 3 0 0 1 3 3v9a3 3 0 0 1-3 3h-14.22a3 3 0 0 1-3-3z"/><path id="d" d="M209 2220.5h8.67v-37.52"/><path id="e" d="M214.41 2184.93v31.63"/><path id="g" d="M163.87 2207.43c0-.36.3-.65.65-.65h10.44a.65.65 0 1 1 0 1.3h-10.44a.65.65 0 0 1-.65-.65z"/><path id="h" d="M163.87 2210.69c0-.36.3-.65.65-.65h6.53a.65.65 0 1 1 0 1.3h-6.53a.65.65 0 0 1-.65-.65z"/><path id="i" d="M173 2210.69c0-.36.3-.65.65-.65h1.96a.65.65 0 1 1 0 1.3h-1.96a.65.65 0 0 1-.65-.65z"/><path id="j" d="M176.91 2207.43c0-.36.3-.65.65-.65h3.27a.65.65 0 1 1 0 1.3h-3.27a.65.65 0 0 1-.65-.65z"/><path id="k" d="M163.87 2213.95c0-.36.3-.65.65-.65h14.35a.65.65 0 1 1 0 1.3h-14.35a.65.65 0 0 1-.65-.65z"/><path id="l" d="M189.3 2189.82c0-.36.3-.65.65-.65h6.53a.65.65 0 1 1 0 1.3h-6.53a.65.65 0 0 1-.65-.65z"/><path id="m" d="M198.43 2189.82c0-.36.3-.65.65-.65h1.96a.65.65 0 1 1 0 1.3h-1.96a.65.65 0 0 1-.65-.65z"/><path id="n" d="M189.3 2193.08c0-.36.3-.65.65-.65h9.79a.65.65 0 1 1 0 1.3h-9.79a.65.65 0 0 1-.65-.65z"/><path id="o" d="M189.3 2196.35c0-.36.3-.65.65-.65h11.09a.65.65 0 1 1 0 1.3h-11.09a.65.65 0 0 1-.65-.65z"/><path id="p" d="M189.3 2199.61c0-.36.3-.65.65-.65h6.53a.65.65 0 1 1 0 1.3h-6.53a.65.65 0 0 1-.65-.65z"/><path id="q" d="M189.3 2202.87c0-.36.3-.65.65-.65h8.48a.65.65 0 1 1 0 1.3h-8.48a.65.65 0 0 1-.65-.65z"/><path id="r" d="M201.04 2202.87c0-.36.3-.65.65-.65h3.27a.65.65 0 1 1 0 1.3h-3.27a.65.65 0 0 1-.65-.65z"/><clipPath id="c"><use fill="#fff" xlink:href="#a"/></clipPath><clipPath id="f"><use fill="#fff" xlink:href="#b"/></clipPath></defs><use fill="#fff" fill-opacity="0" stroke="#5b4285" stroke-miterlimit="50" stroke-width="4" clip-path="url(&quot;#c&quot;)" xlink:href="#a" transform="translate(-158 -2182)"/><use fill="#fff" fill-opacity="0" stroke="#5b4285" stroke-linecap="round" stroke-miterlimit="50" stroke-width="2" xlink:href="#d" transform="translate(-158 -2182)"/><use fill="#fff" fill-opacity="0" stroke="#5b4285" stroke-linecap="round" stroke-miterlimit="50" stroke-width="2" xlink:href="#e" transform="translate(-158 -2182)"/><use fill="#fff" fill-opacity="0" stroke="#5b4285" stroke-miterlimit="50" stroke-width="4" clip-path="url(&quot;#f&quot;)" xlink:href="#b" transform="translate(-158 -2182)"/><use fill="#5b4285" xlink:href="#g" transform="translate(-158 -2182)"/><use fill="#5b4285" xlink:href="#h" transform="translate(-158 -2182)"/><use fill="#5b4285" xlink:href="#i" transform="translate(-158 -2182)"/><use fill="#5b4285" xlink:href="#j" transform="translate(-158 -2182)"/><use fill="#5b4285" xlink:href="#k" transform="translate(-158 -2182)"/><g fill="#5b4285" transform="translate(-158 -2182)"><use xlink:href="#l"/><use xlink:href="#m"/><use xlink:href="#n"/><use xlink:href="#o"/><use xlink:href="#p"/><use xlink:href="#q"/><use xlink:href="#r"/></g></svg>