<svg xmlns="http://www.w3.org/2000/svg" xmlns:xlink="http://www.w3.org/1999/xlink" width="70" height="21"><defs><path id="a" d="M237.5 456c-.09-2.99.5-5 5-5.5s13.5-.5 13.5-.5 6 1 7 4.5-1 12-6.5 13.5-11.5.5-13.5-.5-5.41-8.51-5.5-11.5z"/><path id="b" d="M237.5 457.5s-4.5-1-4.5-2.5v-2s1-2.5 2-3 8-.5 8-.5l3 .5-5.5 1.5-2 .5s-.5 1.5-.5 2-.5 3.5-.5 3.5z"/><path id="c" d="M276.5 456c-.09-2.99.5-5 5-5.5s13.5-.5 13.5-.5 6 1 7 4.5-1 12-6.5 13.5-11.5.5-13.5-.5-5.41-8.51-5.5-11.5z"/><path id="d" d="M276.5 457.5s-4.5-1-4.5-2.5v-2s1-2.5 2-3 8-.5 8-.5l3 .5-5.5 1.5-2 .5s-.5 1.5-.5 2-.5 3.5-.5 3.5z"/><path id="e" d="M263 454.5s2.5-1 5-1 5 1 5 1"/></defs><use fill="#fff" fill-opacity="0" stroke="#6f6f6f" stroke-miterlimit="50" stroke-width="2" xlink:href="#a" transform="translate(-233 -449)"/><use fill="#6f6f6f" xlink:href="#b" transform="translate(-233 -449)"/><use fill="#fff" fill-opacity="0" stroke="#6f6f6f" stroke-miterlimit="50" stroke-width="2" xlink:href="#c" transform="matrix(-1 0 0 1 342 -449)"/><use fill="#6f6f6f" xlink:href="#d" transform="matrix(-1 0 0 1 342 -449)"/><use fill="#fff" fill-opacity="0" stroke="#6f6f6f" stroke-miterlimit="50" stroke-width="2" xlink:href="#e" transform="translate(-233 -449)"/></svg>