<svg xmlns="http://www.w3.org/2000/svg" xmlns:xlink="http://www.w3.org/1999/xlink" width="50" height="16"><defs><path id="a" d="M71.3 2934.36l-.26.65a33.52 33.52 0 0 0-.28.83c-.85 2.25-1.39 3.68-1.6 4.28h3.24l-.86-4.42zm5.97 11.18h-3.74a25.3 25.3 0 0 0-.42-2.29l-5.13-.03-.81 2.32h-4.24l5.94-14.03c.36-.82 1.06-1.23 2.1-1.23h3.06zm-27.9 0H45.4l2.5-15.26h3.98zm-3.12-15.26zm-6.3 15.26h-4.2l-3.27-12.16a9.26 9.26 0 0 1 5.12 5.02c-1.47-4-4.67-6.62-9.6-7.84l.04-.28h6.44c1 0 1.6.41 1.8 1.23l1.4 7.03.46 2.11 3.88-10.37h4.23zm22.95-11.78a6.78 6.78 0 0 0-2.96-.6c-.73 0-1.3.14-1.69.4-.39.28-.58.58-.58.92 0 .34.17.65.51.92.35.27.92.6 1.73 1 2.25 1 3.36 2.38 3.34 4.11 0 1.6-.63 2.87-1.88 3.82-1.26.95-2.94 1.42-5.05 1.42-1.76-.02-3.24-.3-4.45-.8l.53-3.45.5.28c1.35.54 2.6.8 3.77.8.64 0 1.2-.13 1.67-.4.48-.27.73-.65.75-1.14 0-.33-.15-.63-.46-.9a8.4 8.4 0 0 0-1.67-1c-.46-.23-.85-.46-1.2-.67-.34-.2-.7-.48-1.08-.82a3.65 3.65 0 0 1-1.21-2.66 4.37 4.37 0 0 1 1.94-3.6 8.01 8.01 0 0 1 4.85-1.39c1.26 0 2.45.2 3.56.6l-.5 3.34z"/></defs><use fill="#0060b0" xlink:href="#a" transform="translate(-28 -2930)"/></svg>