<svg xmlns="http://www.w3.org/2000/svg" xmlns:xlink="http://www.w3.org/1999/xlink" width="23" height="14"><defs><path id="a" d="M337.47 2931.92c.16-.53 0-.92-.76-.92h-2.51c-.64 0-.94.34-1.1.71 0 0-1.28 3.12-3.1 5.15-.58.58-.84.77-1.16.77-.16 0-.4-.19-.4-.72v-4.99c0-.63-.18-.92-.72-.92h-3.95c-.4 0-.64.3-.64.58 0 .6.9.74 1 2.45v3.7c0 .82-.15.97-.47.97-.85 0-2.92-3.14-4.15-6.72-.25-.7-.49-.98-1.13-.98h-2.52c-.72 0-.86.34-.86.71 0 .67.85 3.97 3.97 8.35 2.08 2.98 5.01 4.6 7.68 4.6 1.6 0 1.8-.36 1.8-.98v-2.26c0-.71.15-.86.65-.86.37 0 1.01.19 2.5 1.63 1.71 1.7 2 2.47 2.95 2.47h2.52c.72 0 1.08-.36.87-1.07-.23-.7-1.04-1.73-2.12-2.95-.59-.7-1.47-1.44-1.73-1.81-.38-.48-.27-.7 0-1.12 0 0 3.06-4.32 3.38-5.79"/></defs><use fill="#fffffe" xlink:href="#a" transform="translate(-315 -2931)"/></svg>